<?xml version="1.0" encoding="UTF-8"?>
<svg width="60px" height="60px" viewBox="0 0 60 60" version="1.1" xmlns="http://www.w3.org/2000/svg" xmlns:xlink="http://www.w3.org/1999/xlink">
    <title>behance</title>
    <g id="Page-1" stroke="none" stroke-width="1" fill="none" fill-rule="evenodd">
        <g id="behance" fill="#000000" fill-rule="nonzero">
            <path d="M41.7982456,26.9931774 C37.9312865,26.9931774 37.3940058,30.8528265 37.3940058,30.8528265 L45.6152898,30.8528265 C45.6152898,30.8528265 45.6676413,26.9931774 41.7982456,26.9931774 Z" id="Path"></path>
            <path d="M23.1457115,30.8528194 L15.8576998,30.8528194 L15.8576998,37.5438596 L22.3099415,37.5438596 C22.4195906,37.5438596 22.5840643,37.5462963 22.7765595,37.5438596 C23.8145712,37.5194932 25.7821637,37.2173489 25.7821637,34.2909357 C25.7821637,30.8174951 23.1457115,30.8528194 23.1457115,30.8528194 Z" id="Path"></path>
            <path d="M30.0012183,0 C13.4320175,0 0,13.4295809 0,29.9987817 C0,46.5679825 13.4320175,60 30.0012183,60 C46.5679825,60 60,46.5679825 60,29.9987817 C60,13.4307992 46.5667641,0 30.0012183,0 Z M36.3157895,18.4332359 L46.6435185,18.4332359 L46.6435185,21.5155945 L36.3157895,21.5155945 L36.3157895,18.4332359 L36.3157895,18.4332359 Z M31.0952729,34.6028265 C31.0952729,42.2429337 23.1457115,41.9907407 23.1457115,41.9907407 L15.8576998,41.9907407 L15.6444932,41.9907407 L10.1193957,41.9907407 L10.1193957,16.9590643 L15.6444932,16.9590643 L15.8576998,16.9590643 L23.1457115,16.9590643 C27.1028265,16.9590643 30.2266082,19.1447368 30.2266082,23.6232943 C30.2266082,28.1018519 26.4071637,28.3869396 26.4071637,28.3869396 C31.4424951,28.3869396 31.0952729,34.6028265 31.0952729,34.6028265 Z M50.4154483,34.1934698 L37.4439571,34.1934698 C37.4439571,38.8425926 41.8481969,38.5501949 41.8481969,38.5501949 C46.0075536,38.5501949 45.8625731,35.8564815 45.8625731,35.8564815 L50.2692495,35.8564815 C50.2692495,43.004386 41.7007797,42.5146199 41.7007797,42.5146199 C31.4230019,42.5146199 32.0845517,32.9446881 32.0845517,32.9446881 C32.0845517,32.9446881 32.0748051,23.32846 41.7007797,23.32846 C51.833577,23.32846 50.4154483,34.1934698 50.4154483,34.1934698 Z" id="Shape"></path>
            <path d="M24.9159357,24.0119396 C24.9159357,21.4083821 23.1457115,21.4083821 23.1457115,21.4083821 L22.2076023,21.4083821 L15.8576998,21.4083821 L15.8576998,26.9931774 L22.6937135,26.9931774 C23.8730507,26.9931774 24.9159357,26.6142788 24.9159357,24.0119396 Z" id="Path"></path>
        </g>
    </g>
</svg>