<?xml version="1.0" encoding="UTF-8"?>
<svg width="762px" height="905px" viewBox="0 0 762 905" version="1.1" xmlns="http://www.w3.org/2000/svg" xmlns:xlink="http://www.w3.org/1999/xlink">
    <title>music file2-04</title>
    <g id="Page-1" stroke="none" stroke-width="1" fill="none" fill-rule="evenodd">
        <g id="Group" transform="translate(2.000000, 2.000000)">
            <path d="M356.5,615.2 C300.1,540.4 362.6,460.8 419.9,409.1 C549.2,238.5 266.3,430.4 179.3,373.2 C41.1,258.4 330.1,95.1 362.9,82 C474.6,37.4 604.1,6.7 671.5,115.8 C671.6,116 671.7,116.2 671.8,116.4 C704.3,182.9 585.8,204.4 625.9,252.5 C658.4,291.5 758.7,231 758.7,321.9 C771.9,414 434.9,656.7 356.5,615.2 Z" id="Path" fill="#F3A13B"></path>
            <path d="M524,41.4 C488.6,42.6 451.3,51.2 414.5,63.2 C422.4,68.3 431.9,71.3 441.3,72.9 C462.1,75.1 481.8,74 500.5,64.1 C510.4,58.3 518,50.4 524,41.4 Z" id="Path" stroke="#1C2628" stroke-width="2.13" fill="#FAF6EB" stroke-linecap="round" stroke-linejoin="round"></path>
            <path d="M556.2,97 C524.8,97 508.3,125.9 512.4,153.6 C549.8,133.3 585.6,141.7 625.1,133.4 C641.1,130 656.8,124.1 671.8,116.4 C671.7,116.2 671.6,116 671.5,115.8 C661.3,99.4 649.8,86.1 637.1,75.6 C627.2,83.3 617.4,91.6 606.6,98.1 C591.3,107.9 573.8,97 556.2,97 Z" id="Path" stroke="#1C2628" stroke-width="2.13" fill="#1C2628" stroke-linecap="round" stroke-linejoin="round"></path>
            <path d="M412.7,132 C413.8,122.1 403.9,114.5 395.2,114.5 C384.2,114 372,111.7 360.1,110.9 C360.1,121.5 361.2,133.9 369,145 C376.5,155.8 383.2,155.4 386.4,164.7 C400.4,158.7 410.7,148.7 412.7,132 Z" id="Path" stroke="#1C2628" stroke-width="2.13" fill="#1C2628" stroke-linecap="round" stroke-linejoin="round"></path>
            <path d="M524,41.4 C518.1,50.5 510.5,58.3 500.4,64.1 C481.8,74 462.1,75.1 441.2,72.9 C431.9,71.3 422.3,68.3 414.4,63.2 C397,68.9 379.7,75.3 362.8,82 C361.3,90.3 360.4,97.9 360.2,104.1 C360.1,106.2 360.1,108.5 360.1,110.8 C372,111.6 384.2,113.9 395.2,114.4 C404,114.4 413.8,122.1 412.7,131.9 C410.6,148.5 400.3,158.5 386.4,164.6 C386.4,164.7 386.5,164.8 386.5,164.9 C391.5,180.1 369.8,237.3 445.2,241.7 C453.3,216.6 468.9,183 500.9,160.6 C504.7,157.9 508.5,155.6 512.3,153.5 C508.2,125.8 524.7,96.9 556.1,96.9 C573.6,96.9 591.2,107.9 606.5,98 C617.3,91.5 627.1,83.2 637,75.5 C605.1,49.1 566,40 524,41.4 Z" id="Path" stroke="#1C2628" stroke-width="2.13" fill="#FAF6EB" stroke-linecap="round" stroke-linejoin="round"></path>
            <g transform="translate(97.600000, 154.700000)" id="Path">
                <path d="M250.3,178.5 C260.2,153.7 263.3,125.8 285.6,108.4 C302.8,95 335,81.4 357.4,85.9 C380.4,90.5 384.4,125.8 376.1,143.3 C370.5,154.9 359.6,162 348.9,168.4" stroke="#1C2628" stroke-width="2.13" fill="#FAF6EB" stroke-linecap="round" stroke-linejoin="round"></path>
                <path d="M327,102.6 L326.6,128.3 L333.1,135.9 C333.1,135.9 379.5,298.4 369.3,304.4 C363.6,307.8 271,329 262.1,326.2 C253.7,323.5 285.7,160 281.5,159 C273.8,157 286.1,141 286.1,141 L286.9,111.5 L286.2,100 L327,102.6 Z" stroke="#1C2628" stroke-width="2.13" fill="#F45B49" stroke-linecap="round" stroke-linejoin="round"></path>
                <polygon stroke="#1C2628" stroke-width="2.13" fill="#1C2628" stroke-linecap="round" stroke-linejoin="round" points="254.6 186.5 252.2 226.6 366.4 227.2 379.2 179.8"></polygon>
                <path d="M191.1,204.1 L128.4,262.8 L28.5,309.1 C28.5,309.1 4.2,330.3 4.2,341.6 C4.2,352.9 21.9,364.2 21.9,364.2 C21.9,364.2 25.4,365.3 25.4,356.1 C25.5,347 18.7,340.9 18.7,340.9 L45.9,324.5 C45.9,324.5 38,347.2 41,353.3 C44,359.4 52.2,355.9 52.2,355.9 L67.6,330.8 C67.6,330.8 113,325.3 156.5,301.2 C200,277.1 241.7,234.3 241.7,234.3" stroke="#1C2628" stroke-width="2.13" fill="#F45B49" stroke-linecap="round" stroke-linejoin="round"></path>
                <path d="M35.8,708 C49.1,690.6 37.6,650.3 65.4,654 L110.9,588.9 L45.1,580.8 C45.1,580.8 31.3,607.1 17.2,636.9 C14,643.6 3.3,651.5 1.2,658.2 C-1.1,665.8 4.2,671.7 3.4,678.7 C0.4,705 1.42108547e-14,726.3 1.42108547e-14,726.3 C1.42108547e-14,726.3 5,729.4 8.9,728.5 C12.9,727.5 15.8,722.5 15.8,722.5 C15.8,722.5 16.5,723.7 17.5,725.1 C17.6,723.9 17.8,722.6 18.1,721.3 C20.5,712.4 31.4,712.4 35.8,708 Z" stroke="#1C2628" stroke-width="2.13" fill="#F45B49" stroke-linecap="round" stroke-linejoin="round"></path>
                <path d="M35.8,708 C31.4,712.4 20.5,712.4 18.3,721.1 C18,722.4 17.8,723.7 17.7,724.9 C19.4,727.2 22,730.1 24.5,730 C33.8,729.5 37.3,724.1 37.3,724.1 C37.3,724.1 37.9,729.3 43.9,729.5 C49.9,729.8 61.3,725 61.3,725 L56.7,712.1 L51.4,673.9 L65.4,653.8 C37.6,650.3 49.1,690.6 35.8,708 Z" stroke="#1C2628" stroke-width="2.13" fill="#1C2628" stroke-linecap="round" stroke-linejoin="round"></path>
                <path d="M386.3,711.3 C385.2,693.8 399.4,677.3 385.2,657.6 C380.5,650.5 386,645.1 393.1,643.5 L373.9,592.1 L328.9,612.9 L363.5,694.8 L342.5,735.7 L342.1,736.5 C342.1,736.5 338.3,741.5 353.2,742.6 L361.4,738 C361.4,738 359.2,744 369.2,745.4 C372,745.8 374.6,740.7 381.2,739.7 C381.2,739.7 384.1,749 389.6,746.5 C400.8,734.6 386.3,721.9 386.3,711.3 Z" stroke="#1C2628" stroke-width="2.13" fill="#F45B49" stroke-linecap="round" stroke-linejoin="round"></path>
                <path d="M406.6,678.2 C403.7,670.9 401.1,664.9 401.1,664.9 L393.1,643.4 C386,645 380.5,650.4 385.2,657.5 C399.4,677.2 385.2,693.6 386.3,711.2 C386.3,721.8 400.8,734.5 389.6,746.3 C390.6,745.9 391.6,745.1 392.7,743.8 C397.3,738.6 403.5,694.5 403.5,694.5 C403.5,694.5 410.7,688.5 406.6,678.2 Z" stroke="#1C2628" stroke-width="2.13" fill="#1C2628" stroke-linecap="round" stroke-linejoin="round"></path>
                <path d="M275.7,82.8 C266.6,53.6 278.6,31 320.3,36.3 C325.2,36.9 330.9,37.5 335.2,40 C355,51.5 353.7,67.7 353.7,67.7 C353.7,67.7 384.8,98.6 363.7,110.3 C342.6,122.1 302.4,125.1 280.5,118.2 C258.4,111.3 275.7,82.8 275.7,82.8 Z" stroke="#1C2628" stroke-width="2.13" fill="#1C2628" stroke-linecap="round" stroke-linejoin="round"></path>
                <path d="M332.2,87.2 C334,80.8 333.3,67.9 331.8,62.1 C328.9,51.5 326.9,52.2 316.1,49.3 C304,46 297.2,45.1 289.4,54.7 C286.4,58.4 277.3,72.4 275.9,77.5 C270.9,95.5 280.5,113.9 297.2,118.5 C307.9,121.4 316.7,120.5 324.5,113 C328.9,108.6 330.4,93.7 332.2,87.2 Z" stroke="#1C2628" stroke-width="2.13" fill="#F45B49" stroke-linecap="round" stroke-linejoin="round"></path>
                <path d="M308,85.6 C308.8,83.1 306.5,80.1 302.9,78.9 C299.2,77.7 295.6,78.7 294.8,81.2 C294,83.7 296.3,86.7 299.9,87.9 C303.5,89.1 307.1,88.1 308,85.6 Z" stroke="#1C2628" stroke-width="2.13" fill="#FAFCFF" stroke-linecap="round" stroke-linejoin="round"></path>
                <path d="M286.3,75.6 C287.1,73.1 284.8,70.1 281.2,68.9 C277.5,67.7 273.9,68.8 273.1,71.2 C272.3,73.7 274.6,76.7 278.2,77.9 C281.8,79.1 285.4,78.1 286.3,75.6 Z" stroke="#1C2628" stroke-width="2.13" fill="#FAFCFF" stroke-linecap="round" stroke-linejoin="round"></path>
                <path d="M323.2,131.3 L325.8,105 C325.8,105 304.6,100.3 299.6,105.8 C294.5,111.3 299.9,129.3 299.9,129.3 L312.6,131.2" fill="#FB564C"></path>
                <path d="M328.8,89.1 C331.2,86.2 336,89.1 336.9,91.9 C338.8,97.7 334.4,107.4 325.3,101.6" stroke="#1C2628" stroke-width="2.13" fill="#F45B49" stroke-linecap="round" stroke-linejoin="round"></path>
                <path d="M296.5,86.6 C298.3,87.7 300.4,87.5 301.3,86.1 C302.2,84.7 301.5,82.6 299.8,81.5 C298,80.4 295.9,80.6 295,82 C294.1,83.5 294.8,85.5 296.5,86.6 Z" stroke="#1C2628" stroke-width="2.13" fill="#1C2628" stroke-linecap="round" stroke-linejoin="round"></path>
                <path d="M279.4,75.9 C280.6,74.2 280.2,71.3 275.6,70.5 C273.9,70.2 274.1,71 272.9,72.7 C271.7,74.4 273.3,76.4 274.7,77.3 C276.2,78.3 278.3,77.6 279.4,75.9 Z" stroke="#1C2628" stroke-width="2.13" fill="#1C2628" stroke-linecap="round" stroke-linejoin="round"></path>
                <path d="M331.2,94.8 C331,95 330.9,95.2 330.7,95.4" stroke="#1C2628" stroke-width="2.13" stroke-linecap="round" stroke-linejoin="round"></path>
                <path d="M305.9,95 C303.6,100 296.8,98.2 292,99.9 C292,99.9 295.8,108.1 303.8,103.8 C309.1,101 305.9,95 305.9,95 Z" stroke="#1C2628" stroke-width="2.13" fill="#1C2628" stroke-linecap="round" stroke-linejoin="round"></path>
                <path d="M290.7,74.7 L318.3,83.2 C318.3,83.2 309.3,93.7 301.9,91.8 C289,88.4 290.7,74.7 290.7,74.7 Z" stroke="#1C2628" stroke-width="2.13" fill="#1C2628" stroke-linecap="round" stroke-linejoin="round"></path>
                <path d="M264.7,67.9 L290.9,74.8 C290.9,74.8 284.8,86.8 272.3,82.7 C259.8,78.6 264.7,67.9 264.7,67.9 Z" stroke="#1C2628" stroke-width="2.13" fill="#1C2628" stroke-linecap="round" stroke-linejoin="round"></path>
                <path d="M289,79.3 C289,79.3 275.2,88.6 275.9,90.7 C278.5,98.9 285.4,92.7 286.6,93" stroke="#1C2628" stroke-width="2.13" fill="#F45B49" stroke-linecap="round" stroke-linejoin="round"></path>
                <path d="M423.3,624.8 C407,630.8 390,634.8 372.8,639 C360,642.1 347.2,645.1 334.6,649.1 C330.3,650.4 323.8,654.7 321.2,651 C293.2,611.2 269.3,568.6 247.4,525.2 C245.6,521.7 244.9,516.9 244.9,511.3 C245,479.8 269.2,421 272.7,400.9 C240.3,458.1 247.5,451.1 207.6,500.8 C187.9,525.4 94.6,651.3 94.6,651.3 L4.9,593.5 L5.6,592.7 L97.4,486.2 C97.4,486.2 174.4,366.6 204.5,324.8 C205.6,323.3 206.6,321.8 207.6,320.5 C253,259 243.9,279.9 308.4,284.1 C330.1,285.5 372.6,274.9 396.9,291.1 C441.7,321 372.9,417.5 365.9,448.6 C353.3,505.2 397,577.4 423.3,624.8 Z" stroke="#1C2628" stroke-width="2.13" fill="#1C2628" stroke-linecap="round" stroke-linejoin="round"></path>
                <path d="M513.9,63.3 C501.4,28.6 366.7,23.8 366.7,23.8 L338.4,2.84217094e-14 C338.4,2.84217094e-14 305.3,13.1 301.7,17.5 C298,21.9 332.9,18.1 332.9,18.1 C332.9,18.1 340,48.1 352.2,53.5 C358.4,56.2 363.5,50.2 371.8,52.8 C402.7,62.5 444.6,79.4 444.6,79.4 L365.7,144.9 L419.2,180.3 C419.2,180.3 526.4,98 513.9,63.3 Z" stroke="#1C2628" stroke-width="2.13" fill="#F45B49" stroke-linecap="round" stroke-linejoin="round"></path>
                <path d="M405.8,205.4 C405.8,205.4 414.7,284.6 422.8,321.8 C423.1,323.3 423.4,324.7 423.8,326 C388.3,316.8 358.8,314 322.8,320.9 C321.7,287.2 322.3,160.7 322.3,160.7 L336,133.1 L403.4,105.9 C403.4,105.9 429.8,144.1 447.4,164.9 C447,165.2 446.7,165.6 446.3,165.9 C428.8,182.1 405.8,205.4 405.8,205.4 Z" stroke="#1C2628" stroke-width="2.13" fill="#FAF6EB" stroke-linecap="round" stroke-linejoin="round"></path>
                <path d="M405.8,205.4 C405.8,205.4 414.7,284.6 422.8,321.8 C410.7,317.8 398,308.1 394.6,297 C392,288.6 396.6,285.5 394.1,271.7 C392.1,260.3 388.3,258.3 381.4,241 C375.1,225.1 372,217.2 373.6,211.8 C377.1,200.3 389.4,202.3 412.1,182.1 C419.5,175.5 420.6,173.2 426.2,170.4 C432.1,167.5 439.5,165.8 446.1,165.9 C428.8,182.1 405.8,205.4 405.8,205.4 Z" stroke="#1C2628" stroke-width="2.13" fill="#1C2628" stroke-linecap="round" stroke-linejoin="round"></path>
                <path d="M283.1,314.9 C283.4,321.2 283.9,326.9 284.2,332.9 C281.5,333.4 278.6,333.7 275.6,333.8 C263.4,334.4 253.5,334.3 245.4,333.9 C216.7,332.3 210.7,326.1 210.7,326.1 L223,277.7 L228.7,255.4 L221.3,258.1 L174.1,213.6 C174.1,213.6 202.9,173.8 229.6,154.6 C256.3,135.4 280.9,136.9 280.9,136.9 C281.5,139.5 297,159.9 297,159.9 C297,159.9 282.4,301.6 283.1,314.9 Z" stroke="#1C2628" stroke-width="2.13" fill="#FAF6EB" stroke-linecap="round" stroke-linejoin="round"></path>
                <path d="M378.6,109.4 C381,142.7 368.3,155.7 352.4,171.6 C348.4,175.6 325.8,193.9 325.8,198.6" stroke="#1C2628" stroke-width="2.13" fill="#FAF6EB" stroke-linecap="round" stroke-linejoin="round"></path>
                <path d="M287.8,197.5 L287.9,197.9 C287.9,197.8 287.8,197.7 287.8,197.6 C281.4,183.4 266.5,164.1 265.3,146.1 C264.9,140.3 266,134.7 269.1,129.4" stroke="#1C2628" stroke-width="2.13" fill="#FAF6EB" stroke-linecap="round" stroke-linejoin="round"></path>
                <path d="M298.2,44.7 C321,42.4 302.5,74.1 329.7,74.1 C330.5,74.1 339.9,72.6 339.8,71.6 C339.7,70.4 337.4,70.5 336.6,69.7 C334.5,67.6 333.9,65.3 333.4,62.5 C332.7,59.1 335.7,52 332.8,49.4 C328.1,45.1 318.3,49.1 312.9,49.6" stroke="#1C2628" stroke-width="2.13" fill="#1C2628" stroke-linecap="round" stroke-linejoin="round"></path>
                <path d="M42.7,328.1 L20.5,332.4 C20.5,332.4 13.4,345.3 19.2,350.4 C25,355.5 41.9,356.5 41.9,356.5 L58,345.7 L50.4,337 L42.7,328.1 Z" stroke="#1C2628" stroke-width="2.13" fill="#FAF6EB" stroke-linecap="round" stroke-linejoin="round"></path>
                <path d="M28.7,339.3 C28.7,328.2 37.7,319.3 48.9,319.3 C60,319.3 69.1,328.3 69.1,339.3 C69.1,350.4 60.1,359.3 48.9,359.3 C37.7,359.3 28.7,350.4 28.7,339.3 Z" stroke="#1C2628" stroke-width="2.13" fill="#1C2628" stroke-linecap="round" stroke-linejoin="round"></path>
                <path d="M40.4,562.9 C85.7,535.7 54.7,585.7 48.2,583.1 C26.6,574.3 119,534.4 85.7,578.7" stroke="#FAF6EB" stroke-width="2.13" stroke-linecap="round" stroke-linejoin="round"></path>
                <path d="M135,484.7 C171.5,455.2 182.2,476.7 151,497.6 C150.2,498.1 149.2,497.2 149.8,496.4 C160.4,481.7 211.6,462.5 186.4,496.2" stroke="#FAF6EB" stroke-width="2.13" stroke-linecap="round" stroke-linejoin="round"></path>
                <path d="M185,371.4 C223.1,340.7 211,384.8 186.8,386.9 C182.9,376 245.7,354.9 218.4,378.3" stroke="#FAF6EB" stroke-width="2.13" stroke-linecap="round" stroke-linejoin="round"></path>
                <path d="M282.9,367.9 C310.4,330.2 331.8,358 303.8,376.2 C301.2,377.9 298.4,374.2 300.8,372.2 C317.9,358.4 351.8,345.8 334.8,378.7" stroke="#FAF6EB" stroke-width="2.13" stroke-linecap="round" stroke-linejoin="round"></path>
                <path d="M264.4,486.4 C295.4,460.8 297.5,487.3 279.8,502.6 C278.1,504.1 275.6,501.7 277.1,500 C285.2,490.2 309.6,480.9 305.9,500.3" stroke="#FAF6EB" stroke-width="2.13" stroke-linecap="round" stroke-linejoin="round"></path>
                <path d="M371.6,351.2 C373.9,343.8 399.4,332.4 402.2,339.1 C401.3,342.8 388,362.8 382.6,357.1 C379.4,353.7 396.7,338.6 398.2,351" stroke="#FAF6EB" stroke-width="2.13" stroke-linecap="round" stroke-linejoin="round"></path>
                <path d="M301,587.1 C323.7,554.9 360.4,566.8 324.8,594.6 C327.9,585.6 355.3,565.4 351.9,589" stroke="#FAF6EB" stroke-width="2.13" stroke-linecap="round" stroke-linejoin="round"></path>
                <path d="M371.6,447.3 C368.7,461.3 358,463.7 350.9,476.1" stroke="#FAF6EB" stroke-width="2.13" stroke-linecap="round" stroke-linejoin="round"></path>
                <path d="M349.9,423.2 C339.4,441.8 307.1,497.5 353.7,481.3 C355.4,483.2 355.7,485.5 355.2,488 C353.7,511.9 373.3,531.1 368,556.9" stroke="#FAF6EB" stroke-width="2.13" stroke-linecap="round" stroke-linejoin="round"></path>
                <path d="M94.7,613.8 C115.1,583.5 110,591.1 131.7,561.7" stroke="#FAF6EB" stroke-width="2.13" stroke-linecap="round" stroke-linejoin="round"></path>
                <path d="M125.6,583.6 C145.1,566.4 148.3,511.4 172.5,520.7 C182.7,524.6 167.9,534.8 167,535.8 C151.5,548.1 183.4,500.8 198.4,504.9" stroke="#FAF6EB" stroke-width="2.13" stroke-linecap="round" stroke-linejoin="round"></path>
                <path d="M231.7,447.7 C243.7,434.7 262.7,400.8 270.7,386.7" stroke="#FAF6EB" stroke-width="2.13" stroke-linecap="round" stroke-linejoin="round"></path>
                <path d="M269.4,360.3 C274.2,373 269,386.7 271.7,399.9" stroke="#FAF6EB" stroke-width="2.13" stroke-linecap="round" stroke-linejoin="round"></path>
                <path d="M443.7,79.7 C448.3,77.1 456,72.3 462.7,68.5" stroke="#1C2628" stroke-width="2.13" stroke-linecap="round" stroke-linejoin="round"></path>
                <path d="M128.7,262.7 C126.9,266.9 130.4,271.3 130.4,275.8" stroke="#1C2628" stroke-width="2.13" stroke-linecap="round" stroke-linejoin="round"></path>
                <path d="M130.9,298.4 C146.2,293.3 159.3,282.9 172.8,274 C182.2,267.9 191.8,258.6 199.9,250.5" stroke="#1C2628" stroke-width="2.13" stroke-linecap="round" stroke-linejoin="round"></path>
                <path d="M171.5,280.8 C182.6,276 192.1,268.2 201.7,260.9" stroke="#1C2628" stroke-width="2.13" stroke-linecap="round" stroke-linejoin="round"></path>
                <path d="M433.6,132.4 C439.4,128.4 445.2,124.4 451.6,121.6 C457.6,118.9 452.4,126 456.6,122.1 C461.2,117.8 464.4,112.9 469.7,109.5 C474.4,106.4 478.8,106.4 483.2,102.3 C490.2,95.8 495.4,87.4 502.1,80.6" stroke="#1C2628" stroke-width="2.13" stroke-linecap="round" stroke-linejoin="round"></path>
                <path d="M451.2,136.9 C457.3,131.8 463.2,126.7 469.2,121.6" stroke="#1C2628" stroke-width="2.13" stroke-linecap="round" stroke-linejoin="round"></path>
                <path d="M404.8,203.3 C401.2,207.9 392.6,182.3 398.6,188.6 C399.9,190 400.9,191.6 401.8,193.2 C402.9,195.2 404.1,197.3 404.8,199.6 C405.1,200.7 405.6,202.3 404.8,203.3 Z" stroke="#1C2628" stroke-width="2.13" stroke-linecap="round" stroke-linejoin="round"></path>
                <path d="M228.3,254.9 C229.6,247.6 232.7,240.6 236.3,234 C237.3,232.2 239.2,230.3 241.2,230.5 C242.5,230.6 241.5,233.2 241.2,234.4 C239.9,238.5 238,242.3 236.4,246.3" stroke="#1C2628" stroke-width="2.13" stroke-linecap="round" stroke-linejoin="round"></path>
                <path d="M266.4,208.6 C266.3,208.2 266.1,207.2 266.2,207.5 C268.4,213.3 271.3,218.8 272.6,224.9 C272.8,226 270.3,231.3 269.5,232.8 C257.7,254.1 263.9,275.2 269.3,298.1" stroke="#1C2628" stroke-width="2.13" stroke-linecap="round" stroke-linejoin="round"></path>
                <path d="M272.9,271.1 C273.3,262.7 273.8,254.2 274.9,245.9" stroke="#1C2628" stroke-width="2.13" stroke-linecap="round" stroke-linejoin="round"></path>
                <path d="M342.6,207.6 C344.2,223.8 341.5,240.3 339.6,256.4" stroke="#1C2628" stroke-width="2.13" stroke-linecap="round" stroke-linejoin="round"></path>
            </g>
            <path d="M343,488.6 C314.3,487 308.3,480.8 308.3,480.8 L320.6,432.4 C325,432.4 328.8,433.6 330.7,436 C334.2,440.3 331.8,448.6 329.1,458.4 C325.9,469.7 322,474.8 324.2,477.2 C327.3,480.7 337.6,472.9 342.1,476.9 C344.5,478.9 344.7,484.1 343,488.6 Z" id="Path" stroke="#1C2628" stroke-width="2.13" fill="#1C2628" stroke-linecap="round" stroke-linejoin="round"></path>
            <path d="M385.3,352.3 C384.7,356 383.4,358.9 381.4,359.5 C378.8,360.3 377.5,356.5 369.5,352.4 C361.9,348.5 356.8,348.8 355.9,345.3 C355.2,342.9 357.6,341.9 357.9,339 C358.6,331.7 344.9,328.9 339.6,319 C334.1,308.6 356.3,293.3 362.9,300.7 C364,318.8 379,338.1 385.3,352.3 Z" id="Path" stroke="#1C2628" stroke-width="2.13" fill="#1C2628" stroke-linecap="round" stroke-linejoin="round"></path>
            <path d="M388.7,88.5 C379.4,93.8 374.3,104.1 376.1,113.8 C378.2,125.6 390,134.6 403.5,133.3 C398.6,118.3 393.7,103.4 388.7,88.5 Z" id="Path" fill="#F3A13B"></path>
            <circle id="Oval" fill="#FB564C" cx="581.6" cy="72.4" r="14.8"></circle>
            <g id="stars" transform="translate(446.400000, 0.000000)" stroke="#1C2628" stroke-linecap="round" stroke-linejoin="round" stroke-width="2.13">
                <polygon id="Path" fill="#FAF6EB" fill-rule="nonzero" points="115.2 31.7 130.4 3.55271368e-15 132 32.7 161.6 30.6 134.2 47.1 138.3 70.4 121.1 52.7 107.2 82.3 108.6 49.1 82.6 57.9 106.4 39.5 79.3 9.9"></polygon>
                <polygon id="Path" points="16.3 113.2 28 106.4 21.4 117.2 31.3 122.9 19 122.2 15.2 130.5 13.5 121.1 2.6 127.5 10.2 117.2 -5.68434189e-14 114.4 11.6 113.7 9.4 98.4"></polygon>
            </g>
            <path d="M275.3,556.6 C261.4,568.1 255.7,569.5 248,580.6 C242.8,588.1 241.3,593.4 232.4,617.6 C224.3,639.8 220.3,650.8 219.1,652.9 C206.5,674.4 192.6,670.6 171.4,690.9 C144.2,717 151.1,739 131.2,746.7 C123,749.9 112.8,749.7 103.4,747.2 L195.2,640.7 C195.2,640.7 272.2,521.1 302.3,479.3 C309.6,484.9 315.1,493 316.2,500.7 C318.9,520.5 293,542 275.3,556.6 Z" id="Path" fill="#FAF6EB"></path>
            <polyline id="Path" stroke="#1C2628" stroke-width="2.13" stroke-linecap="round" stroke-linejoin="round" points="275 519.1 195.1 640.9 123.4 724"></polyline>
            <path d="M470.5,793.6 C457.7,796.7 445.1,800.4 432.5,804.4 C429.2,806 423.2,808.8 418.4,808.6 C392.6,767.8 366.9,723.3 345,679.9 C343.2,676.4 342.5,671.6 342.5,666 C345,665.3 347.7,665 350.4,665.6 C363.4,668.2 370.2,687.6 373.3,696.3 C378.1,709.9 374.6,710.2 378.2,717.7 C389.1,740.4 421,736.7 425.9,755.7 C428.2,764.5 422.1,768.3 425.9,774.2 C433,785.4 456.5,774.8 466.8,786.9 C468.6,788.7 469.7,791.1 470.5,793.6 Z" id="Path" fill="#FAF6EB"></path>
            <polyline id="Path" stroke="#1C2628" stroke-width="2.13" stroke-linecap="round" stroke-linejoin="round" points="357.9 704.7 418.9 810.1 441.3 802.5"></polyline>
            <g transform="translate(38.600000, 255.500000)" id="Path" stroke="#1C2628" stroke-linecap="round" stroke-linejoin="round" stroke-width="2.13">
                <path d="M1.42108547e-14,176.5 C4.6,156.8 11.2,135.1 28.9,125.2 C42.3,117.7 58.7,119 73.9,117 C105.1,112.9 133.8,93 148.6,65.3 C156.3,50.8 160.7,34.1 172.1,22.4 C183.8,10.4 201,5.6 217.7,3.9 C234.3,2.2 251.3,3 267.7,0"></path>
                <path d="M241.1,34.7 C228.6,34.2 214.9,34 205.3,42.1 C192.6,52.7 193.1,72.5 184.3,86.5 C176.8,98.5 163.3,105.1 150.4,111.1"></path>
            </g>
            <g id="Music-Notes" transform="translate(0.000000, 204.455556)" fill="#1C2628" fill-rule="nonzero" stroke="#1C2628" stroke-linecap="round" stroke-linejoin="round" stroke-width="2.13">
                <path d="M38.3,130.444444 L36.9,130.544444 C29.1,131.044444 27,130.044444 25.2,128.544444 C25.1,128.544444 25.1,128.544444 25,128.444444 L20.1,121.844444 C22.2,122.444444 25,122.644444 29.4,122.244444 L30.9,122.144444 C36.6,121.644444 46.1,120.844444 48.3,128.544444 C48.5,129.144444 49.1,129.444444 49.6,129.244444 C49.7,129.244444 49.7,129.244444 49.8,129.144444 C50.3,128.944444 50.5,128.344444 50.4,127.844444 C47.7,118.444444 36.6,119.344444 30.7,119.944444 L29.3,120.044444 C21.5,120.644444 19.5,119.544444 17.6,118.044444 C17.5,117.944444 17.4,118.044444 17.3,117.944444 L12.1,110.944444 C14.2,111.544444 16.9,111.644444 21.3,111.344444 L22.8,111.244444 C28.5,110.744444 38,109.944444 40.2,117.644444 C40.4,118.244444 41,118.544444 41.5,118.344444 C41.5,118.344444 41.6,118.344444 41.6,118.244444 C42.1,118.044444 42.3,117.444444 42.2,116.944444 C39.5,107.544444 28.5,108.444444 22.6,108.944444 L21.2,109.044444 C13.4,109.644444 11.4,108.544444 9.5,107.044444 L9.4,107.044444 L4.7,100.744444 C6.7,101.244444 9.5,101.444444 13.7,101.144444 L15.2,101.044444 C20.9,100.544444 30.4,99.7444444 32.6,107.444444 C32.8,108.044444 33.4,108.344444 33.9,108.144444 C33.9,108.144444 34,108.144444 34,108.044444 C34.5,107.844444 34.7,107.244444 34.6,106.744444 C31.9,97.3444444 20.9,98.3444444 14.9,98.8444444 L13.4,98.9444444 C5.6,99.5444444 3.6,98.4444444 1.7,96.9444444 L1.6,96.9444444 C1.4,96.8444444 1.3,96.7444444 1.1,96.7444444 C1,96.7444444 0.9,96.7444444 0.8,96.8444444 C0.7,96.8444444 0.6,96.8444444 0.4,96.9444444 C0.3,96.9444444 0.3,97.0444444 0.3,97.1444444 C0.3,97.1444444 0.2,97.1444444 0.2,97.2444444 C0.2,97.3444444 0.2,97.3444444 0.1,97.4444444 C0,97.5444444 0,97.7444444 0,97.8444444 C0,98.0444444 0,98.1444444 0.1,98.2444444 C0.1,98.3444444 0.1,98.3444444 0.1,98.4444444 L43.5,156.944444 C39.7,156.744444 35.4,159.444444 32.8,163.944444 C29.5,169.844444 30.4,176.544444 34.8,179.044444 C39.2,181.544444 45.4,178.744444 48.7,172.944444 C51.9,167.244444 51.1,160.644444 47,158.144444 L27.8,132.344444 C29.9,132.944444 32.6,133.044444 37.1,132.744444 L38.6,132.644444 C44.3,132.144444 53.8,131.344444 56.1,139.044444 C56.3,139.644444 56.9,139.944444 57.4,139.744444 C57.4,139.744444 57.5,139.744444 57.5,139.644444 C58,139.444444 58.2,138.844444 58.1,138.344444 C55.2,128.944444 44.2,129.944444 38.3,130.444444 Z" id="Path"></path>
                <path d="M217.3,30.1444444 L215.9,29.9444444 C207.7,28.9444444 205.8,27.3444444 204.1,25.4444444 C204,25.3444444 203.9,25.3444444 203.9,25.3444444 L199.9,17.0444444 C201.9,18.0444444 204.8,18.8444444 209.4,19.3444444 L210.9,19.5444444 C216.9,20.1444444 227,21.2444444 227.7,29.7444444 C227.8,30.3444444 228.3,30.8444444 228.9,30.7444444 C229,30.7444444 229.2,30.7444444 229.3,30.6444444 C229.7,30.4444444 230,30.0444444 230,29.5444444 C229.1,19.1444444 217.4,17.9444444 211.2,17.2444444 L209.8,17.0444444 C201.6,16.0444444 199.7,14.5444444 198,12.5444444 C198,12.5444444 197.9,12.5444444 197.9,12.4444444 L194.3,4.94444444 C196.3,5.84444444 199.1,6.64444444 203.6,7.14444444 L205.1,7.34444444 C211.1,8.04444444 221.2,9.14444444 221.9,17.5444444 C222,18.1444444 222.5,18.6444444 223.1,18.5444444 C223.2,18.5444444 223.4,18.5444444 223.5,18.4444444 C223.9,18.2444444 224.2,17.8444444 224.2,17.3444444 C223.3,7.04444444 211.6,5.74444444 205.4,5.04444444 L203.9,4.84444444 C195.6,3.84444444 193.8,2.34444444 192.2,0.444444444 C192.2,0.344444444 192.1,0.344444444 192,0.344444444 C191.8,0.144444444 191.7,0.0444444444 191.5,0.0444444444 C191.4,0.0444444444 191.4,0.0444444444 191.4,0.0444444444 C191.2,0.0444444444 191.1,-0.0555555556 190.9,0.0444444444 L190.9,0.0444444444 C190.8,0.0444444444 190.8,0.144444444 190.7,0.244444444 L190.7,0.244444444 L190.7,0.244444444 C190.5,0.444444444 190.4,0.644444444 190.4,0.844444444 C190.4,0.944444444 190.4,1.04444444 190.4,1.14444444 C190.4,1.24444444 190.4,1.34444444 190.4,1.44444444 L223.4,70.6444444 C219.4,69.6444444 214.4,71.5444444 210.9,75.7444444 C206.3,81.0444444 205.8,88.2444444 209.9,91.7444444 C213.9,95.2444444 220.9,93.6444444 225.5,88.2444444 C230,82.9444444 230.5,76.0444444 226.8,72.5444444 L206.3,29.5444444 C208.3,30.5444444 211.2,31.3444444 215.9,31.9444444 L217.4,32.1444444 C223.4,32.7444444 233.5,33.8444444 234.2,42.3444444 C234.3,42.9444444 234.8,43.4444444 235.4,43.3444444 C235.5,43.3444444 235.7,43.3444444 235.8,43.2444444 C236.2,43.0444444 236.5,42.6444444 236.5,42.1444444 C235.3,32.0444444 223.6,30.7444444 217.3,30.1444444 Z" id="Path"></path>
                <path d="M144.8,165.744444 C153.5,167.944444 145.6,177.244444 147,184.344444 C148.4,190.844444 152.9,190.644444 156.8,189.544444 C156.8,189.544444 149.7,208.044444 166.3,206.944444 C156.3,202.244444 160.8,186.644444 160.8,186.644444 C150.4,185.344444 156,180.244444 155.1,172.544444 C153.8,160.244444 144.8,165.744444 144.8,165.744444 Z" id="Path"></path>
            </g>
            <g transform="translate(590.200000, 319.700000)" fill="#1C2628" fill-rule="nonzero" id="Rectangle" stroke="#1C2628" stroke-linecap="round" stroke-linejoin="round" stroke-width="2.13">
                <rect x="-1.13686838e-13" y="-5.68434189e-14" width="16.5" height="56.8"></rect>
                <rect x="28.1" y="-5.68434189e-14" width="16.5" height="56.8"></rect>
            </g>
            <g id="Blobs" transform="translate(517.338706, 217.521535)">
                <path d="M140.161294,25.8784655 C135.261294,29.8784655 117.561294,23.1784655 117.461294,12.9784655 C117.461294,6.17846549 125.261294,-0.82153451 131.261294,0.0784654897 C140.561294,1.37846549 145.361294,21.5784655 140.161294,25.8784655 Z" id="Path" fill="#F3A13B"></path>
                <path d="M7.56129374,150.778465 C5.26129374,147.378465 6.56129374,141.878465 10.2612937,139.178465 C13.1612937,137.078465 17.7612937,136.478465 20.9612937,139.178465 C24.3612937,142.178465 24.2612937,147.578465 21.8612937,150.778465 C18.3612937,155.178465 10.4612937,155.078465 7.56129374,150.778465 Z" id="Path" stroke="#1C2628" stroke-width="2.13" fill="#1C2628" stroke-linecap="round" stroke-linejoin="round"></path>
                <path d="M4.46129374,311.178465 C-0.738706259,308.678465 -2.03870626,294.378465 4.06129374,285.378465 C12.9612937,272.078465 37.6612937,270.278465 43.6612937,279.178465 C47.6612937,285.078465 44.1612937,296.778465 37.4612937,301.878465 C32.3612937,305.678465 28.7612937,303.078465 16.1612937,307.678465 C8.46129374,310.378465 6.76129374,312.278465 4.46129374,311.178465 Z" id="Path" stroke="#1C2628" stroke-width="2.13" fill="#1C2628" stroke-linecap="round" stroke-linejoin="round"></path>
            </g>
            <path d="M670.8,461.5 C666.7,458.2 661.5,456.6 656.9,456.7 C654.2,456.7 651.7,457.3 649.4,458.1 C649.5,456.9 649.6,455.7 649.7,454.5 C649.9,452.2 650.2,449.8 650.4,447.4 C653,446 655.5,444.3 657.9,442.5 C663.7,438.2 668.5,432.4 671.1,425.6 C673.6,418.8 675.9,411.8 675.2,405 C675.1,403.2 674.7,402 674.2,399.6 C674,398.7 673.6,397.1 673,395.6 C672.4,394.2 670.8,392.8 668.9,392.5 C665,392.1 662.7,394 661.1,395.3 C660.3,396.1 659.7,396.8 659,397.6 C658.6,398 658.4,398.3 658.2,398.7 L658,398.9 C657.8,399.1 657.9,399.1 657.8,399.3 L657.5,399.9 C655.6,403.2 654.9,406.6 654.3,409.8 C653.7,412.9 653.1,416 652.5,419.1 C651.4,424 650.6,428.8 649.9,433.6 C647.8,435.2 645.6,436.7 643.3,438 L639.1,440.4 C637.7,441.2 636.2,442.1 634.7,443.2 C628.8,447.1 623.5,452 619.6,458.2 C615.6,464.3 613.7,472.3 615.5,479.4 C617.2,486.6 621.8,492.3 627.1,496.2 C632.3,499.9 638.1,502.3 644,503.4 C643.8,506.5 643.6,509.6 643.3,512.5 C643.2,520.3 639,526.2 633.9,527.3 C630.1,528 627.1,526.3 625.4,524.4 C625.6,524.5 625.8,524.6 626.1,524.7 C629.5,525.7 633,523.7 633.9,520.3 C634.9,516.9 632.9,513.4 629.5,512.5 C626.1,511.5 622.6,513.5 621.7,516.8 C621.6,517.1 621.6,517.3 621.6,517.6 L621.6,517.6 L621.6,517.6 C621.4,518.9 621.6,520.2 622.2,521.4 C622.3,521.7 622.5,522.1 622.6,522.5 C623.3,524 624.5,525.6 626.4,527 C628.4,528.3 631,529.4 634.1,529.2 C637.3,529 640.7,527.2 642.9,524.1 C644,522.6 644.9,520.8 645.4,518.8 C645.9,516.7 646.1,514.9 646.3,512.8 C646.6,510 646.8,507 647,503.9 C652.3,504.5 657.6,504.1 662.6,502.6 C668.2,500.7 673.2,497 676,491.9 C678.9,486.9 679.8,481 678.9,475.6 C677.8,470 675,464.9 670.8,461.5 Z M661,407.2 C662.5,405 666,398.7 669.5,400.9 C671.7,402.3 671.2,405.6 670.6,407.7 C669.3,412.6 666.8,417.3 663.3,421 C659.9,424.6 656.5,427.9 652.9,431.1 C653.6,427.4 654.4,423.6 655.3,419.9 C656.5,415.4 658.4,411.1 661,407.2 Z M630.2,492.1 C626,488.3 622.8,483.4 622.1,478.1 C621.4,472.8 623.2,467.6 626.6,463.2 C630.1,458.9 635,455.4 640.2,452.5 C641.4,451.8 642.7,451.1 644.3,450.4 L646.4,449.4 C646.9,449.2 647.4,448.9 647.9,448.6 C647.7,450.5 647.5,452.3 647.3,454.2 C647.1,455.8 647,457.4 646.9,459 C642.5,461.2 639.2,464.7 637.3,468.1 C634.3,473.8 634.4,478.8 634.8,481.9 C635,483.5 635.3,484.6 635.6,485.4 C635.8,486.2 636,486.6 636,486.6 C636,486.6 636,484.9 636.4,481.9 C636.9,479 637.9,474.6 641.2,470.6 C642.5,469 644.2,467.4 646.3,466.2 C645.8,473 645.3,479.5 644.9,485.7 C644.5,490.5 644.3,495.1 644,499.4 C639,498.1 634.1,495.6 630.2,492.1 Z" id="Shape" stroke="#1C2628" stroke-width="2.13" fill="#1C2628" fill-rule="nonzero" stroke-linecap="round" stroke-linejoin="round"></path>
            <path d="M435.3,259.4 C435.3,263.8 431.7,267.4 427.3,267.4 C422.9,267.4 419.3,263.8 419.3,259.4 C419.3,255 422.9,251.4 427.3,251.4" id="Path" stroke="#FAF6EB" stroke-width="2.13" stroke-linecap="round" stroke-linejoin="round"></path>
            <path d="M394.1,194 C390.3,193.1 386.5,192.3 382.7,192.5 C378.8,192.7 374.9,194.1 372.5,197.1 C370,200.2 369.5,204.5 369.3,208.6 C369.1,211.5 369.1,214.5 369.9,217.3 C370.7,220.1 372.7,222.7 375.4,223.7" id="Path" stroke="#1C2628" stroke-width="2.13" stroke-linecap="round" stroke-linejoin="round"></path>
            <line x1="360.3" y1="225.4" x2="414.3" y2="239.4" id="Path" stroke="#FAF6EB" stroke-width="2.13" stroke-linecap="round" stroke-linejoin="round"></line>
            <path d="M432.9,241.1 C433.3,241.4 414.3,239.4 414.3,239.4" id="Path" stroke="#1C2628" stroke-width="2.13" stroke-linecap="round" stroke-linejoin="round"></path>
        </g>
    </g>
</svg>